<svg width="60" height="61" viewBox="0 0 60 61" fill="none" xmlns="http://www.w3.org/2000/svg">
<circle cx="30" cy="30.5" r="29.5" stroke="#7D7D7D" stroke-dasharray="4 4"/>
<path d="M39.4839 25.625L30.4619 20.625C30.3137 20.5433 30.1472 20.5005 29.9779 20.5005C29.8087 20.5005 29.6422 20.5433 29.4939 20.625L20.5159 25.585C20.36 25.6714 20.2299 25.7978 20.1393 25.9514C20.0486 26.1049 20.0007 26.2798 20.0004 26.4581C20.0001 26.6364 20.0474 26.8115 20.1375 26.9653C20.2277 27.1192 20.3573 27.2461 20.5129 27.333L29.5349 32.373C29.6835 32.4564 29.8509 32.5004 30.0213 32.5005C30.1917 32.5007 30.3592 32.4571 30.5079 32.374L39.4859 27.374C39.6419 27.2873 39.7718 27.1604 39.8622 27.0065C39.9526 26.8526 40.0001 26.6774 39.9999 26.4989C39.9997 26.3204 39.9518 26.1453 39.861 25.9916C39.7703 25.838 39.6401 25.7114 39.4839 25.625Z" fill="#3A53FF"/>
<path d="M30 34.356L21.485 29.626L20.514 31.374L29.514 36.374C29.6626 36.4565 29.8296 36.4998 29.9995 36.4998C30.1694 36.4998 30.3365 36.4565 30.485 36.374L39.485 31.374L38.514 29.626L30 34.356Z" fill="#3A53FF"/>
<path d="M30 38.356L21.485 33.626L20.514 35.374L29.514 40.374C29.6626 40.4565 29.8296 40.4998 29.9995 40.4998C30.1694 40.4998 30.3365 40.4565 30.485 40.374L39.485 35.374L38.514 33.626L30 38.356Z" fill="#3A53FF"/>
</svg>
